<svg xmlns="http://www.w3.org/2000/svg" width="17.314" height="20.568" viewBox="0 0 17.314 20.568">
    <path id="prefix__copy_1_" fill="#fff" d="M10.886 20.568H3.214A3.217 3.217 0 0 1 0 17.354V6.468a3.217 3.217 0 0 1 3.214-3.214h7.673A3.217 3.217 0 0 1 14.1 6.468v10.886a3.217 3.217 0 0 1-3.214 3.214zM3.214 4.861a1.609 1.609 0 0 0-1.607 1.607v10.886a1.609 1.609 0 0 0 1.607 1.607h7.673a1.609 1.609 0 0 0 1.607-1.607V6.468a1.609 1.609 0 0 0-1.607-1.607zm14.1 10.485V3.214A3.217 3.217 0 0 0 14.1 0H5.182a.8.8 0 1 0 0 1.607H14.1a1.609 1.609 0 0 1 1.607 1.607v12.131a.8.8 0 1 0 1.607 0zm0 0" data-name="copy (1)" opacity="0.5"/>
</svg>
