<svg xmlns="http://www.w3.org/2000/svg" id="prefix__message" width="23.418" height="21.545" viewBox="0 0 23.418 21.545">
    <defs>
        <style>
            .prefix__cls-1{fill:#fff}
        </style>
    </defs>
    <path id="prefix__Path_63" d="M20.2-1.332H3.22A3.223 3.223 0 0 0 0 1.887v10.391A3.223 3.223 0 0 0 3.208 15.5v4.715L9.984 15.5H20.2a3.223 3.223 0 0 0 3.22-3.22V1.887a3.223 3.223 0 0 0-3.22-3.219zm1.847 13.61a1.85 1.85 0 0 1-1.847 1.847H9.554L4.58 17.586v-3.461H3.22a1.85 1.85 0 0 1-1.847-1.847V1.887A1.849 1.849 0 0 1 3.22.04H20.2a1.849 1.849 0 0 1 1.847 1.847zm0 0" class="prefix__cls-1" data-name="Path 63" transform="translate(0 1.332)"/>
    <path id="prefix__Path_64" d="M171.293 131.172h10.883v1.372h-10.883zm0 0" class="prefix__cls-1" data-name="Path 64" transform="translate(-165.025 -126.324)"/>
    <path id="prefix__Path_65" d="M171.293 211.172h10.883v1.372h-10.883zm0 0" class="prefix__cls-1" data-name="Path 65" transform="translate(-165.025 -203.396)"/>
    <path id="prefix__Path_66" d="M171.293 291.172h10.883v1.372h-10.883zm0 0" class="prefix__cls-1" data-name="Path 66" transform="translate(-165.025 -280.469)"/>
</svg>
