<svg xmlns="http://www.w3.org/2000/svg" width="29.105" height="29.105" viewBox="0 0 29.105 29.105">
    <path id="prefix__phoneRed" fill="none" stroke="#ff4b4d" stroke-linecap="round" stroke-linejoin="round" stroke-width="1.5px" d="M21.171 16.3v2.875a1.917 1.917 0 0 1-2.089 1.917 18.965 18.965 0 0 1-8.27-2.942 18.687 18.687 0 0 1-5.75-5.75A18.965 18.965 0 0 1 2.12 4.089 1.917 1.917 0 0 1 4.027 2H6.9a1.917 1.917 0 0 1 1.918 1.648 12.3 12.3 0 0 0 .671 2.693 1.917 1.917 0 0 1-.431 2.022L7.841 9.58a15.333 15.333 0 0 0 5.75 5.75l1.217-1.217a1.917 1.917 0 0 1 2.022-.431 12.3 12.3 0 0 0 2.693.671 1.917 1.917 0 0 1 1.648 1.947z" transform="rotate(135 12.475 13.654)"/>
</svg>
