<svg xmlns="http://www.w3.org/2000/svg" width="33.324" height="33.324" viewBox="0 0 33.324 33.324">
    <path id="prefix___007-paperclip" fill="#fff" stroke="#1d2731" stroke-width="0.5px" d="M8.871 0A8.88 8.88 0 0 0 0 8.871V21.29a1.183 1.183 0 0 0 2.366 0V8.871a6.505 6.505 0 1 1 13.01 0v13.01a4.14 4.14 0 0 1-8.279 0V10.053a1.774 1.774 0 1 1 3.548 0V21.29a1.183 1.183 0 0 0 2.366 0V10.053a4.14 4.14 0 0 0-8.279 0v11.828a6.505 6.505 0 0 0 13.01 0V8.871A8.88 8.88 0 0 0 8.871 0zm0 0" data-name="007-paperclip" transform="rotate(45 9.786 24.833)"/>
</svg>
