<svg xmlns="http://www.w3.org/2000/svg" width="17.169" height="17.168" viewBox="0 0 17.169 17.168">
    <g id="prefix__close_4_" data-name="close (4)" transform="translate(0 -.016)">
        <g id="prefix__Group_153" data-name="Group 153" transform="translate(0 .016)">
            <path id="prefix__Path_60" fill="#fff" d="M10.476 8.6L16.9 2.18a.941.941 0 0 0 0-1.328L16.333.29A.941.941 0 0 0 15 .29L8.585 6.709 2.165.29a.941.941 0 0 0-1.327 0L.275.853a.94.94 0 0 0 0 1.328L6.694 8.6.275 15.02a.942.942 0 0 0 0 1.328l.563.562a.941.941 0 0 0 1.328 0l6.42-6.419L15 16.91a.932.932 0 0 0 .664.274.932.932 0 0 0 .664-.274l.563-.562a.942.942 0 0 0 0-1.328z" data-name="Path 60" transform="translate(0 -.016)"/>
        </g>
    </g>
</svg>
