<svg xmlns="http://www.w3.org/2000/svg" width="22.675" height="22.717" viewBox="0 0 22.675 22.717">
    <path id="prefix__phone" fill="none" stroke="#fff" stroke-linecap="round" stroke-linejoin="round" stroke-width="1.5px" d="M23.285 17.884v3.194a2.129 2.129 0 0 1-2.321 2.129 21.068 21.068 0 0 1-9.187-3.268 20.76 20.76 0 0 1-6.388-6.388 21.068 21.068 0 0 1-3.268-9.23A2.129 2.129 0 0 1 4.239 2h3.194a2.129 2.129 0 0 1 2.129 1.831 13.669 13.669 0 0 0 .745 2.992 2.129 2.129 0 0 1-.479 2.246l-1.352 1.352a17.034 17.034 0 0 0 6.388 6.388l1.352-1.352a2.129 2.129 0 0 1 2.246-.479 13.669 13.669 0 0 0 2.992.745 2.129 2.129 0 0 1 1.831 2.161z" transform="translate(-1.361 -1.25)"/>
</svg>
