<svg xmlns="http://www.w3.org/2000/svg" width="15.657" height="9.979" viewBox="0 0 15.657 9.979">
    <defs>
        <style>
            .cls-2{fill:#fff}
        </style>
    </defs>
    <g id="eye" opacity="0.5">
        <g id="Group_233">
            <g id="Group_232">
                <path id="Path_125" d="M15.558 97.52c-.14-.191-3.473-4.685-7.729-4.685S.239 97.329.1 97.52a.517.517 0 0 0 0 .609c.14.191 3.473 4.685 7.729 4.685s7.589-4.494 7.729-4.685a.516.516 0 0 0 0-.609zm-7.729 4.262c-3.135 0-5.851-2.983-6.655-3.958.8-.976 3.513-3.957 6.655-3.957s5.851 2.982 6.655 3.958c-.803.975-3.513 3.957-6.655 3.957z" class="cls-2" transform="translate(0 -92.835)"/>
            </g>
        </g>
        <g id="Group_235" transform="translate(4.731 1.893)">
            <g id="Group_234">
                <path id="Path_126" d="M157.819 154.725a3.1 3.1 0 1 0 3.1 3.1 3.1 3.1 0 0 0-3.1-3.1zm0 5.162a2.065 2.065 0 1 1 2.065-2.065 2.067 2.067 0 0 1-2.065 2.065z" class="cls-2" transform="translate(-154.722 -154.725)"/>
            </g>
        </g>
    </g>
</svg>
