<svg xmlns="http://www.w3.org/2000/svg" width="24.179" height="24.179" viewBox="0 0 24.179 24.179">
    <defs>
        <style>
            .prefix__cls-1{fill:#fff}
        </style>
    </defs>
    <g id="prefix__settings">
        <path id="prefix__Path_969" d="M12.09 24.179a2.648 2.648 0 0 1-2.645-2.645v-.77a8.98 8.98 0 0 1-1.619-.671l-.545.545a2.645 2.645 0 1 1-3.74-3.74l.545-.545a8.985 8.985 0 0 1-.671-1.619h-.77a2.645 2.645 0 0 1 0-5.289h.77a8.98 8.98 0 0 1 .671-1.619l-.545-.545a2.645 2.645 0 1 1 3.74-3.74l.545.545a8.984 8.984 0 0 1 1.619-.671v-.77A2.645 2.645 0 0 1 12.09 0a2.682 2.682 0 0 1 .527.053 2.653 2.653 0 0 1 2.118 2.592v.77a8.98 8.98 0 0 1 1.619.671l.545-.545a2.645 2.645 0 1 1 3.74 3.74l-.545.545a8.985 8.985 0 0 1 .671 1.619h.77a2.645 2.645 0 0 1 0 5.289h-.77a8.98 8.98 0 0 1-.671 1.619l.545.545a2.645 2.645 0 0 1-3.74 3.74l-.545-.545a8.984 8.984 0 0 1-1.619.671v.77a2.647 2.647 0 0 1-2.116 2.592 2.682 2.682 0 0 1-.527.053zm.378-.793zM7.7 18.394a.753.753 0 0 1 .4.114 7.49 7.49 0 0 0 2.271.941.756.756 0 0 1 .585.736v1.349a1.135 1.135 0 0 0 1.133 1.133 1.166 1.166 0 0 0 .228-.023 1.135 1.135 0 0 0 .906-1.111v-1.348a.756.756 0 0 1 .585-.736 7.489 7.489 0 0 0 2.271-.941.756.756 0 0 1 .934.107l.954.954a1.133 1.133 0 0 0 1.6-1.6l-.954-.954a.756.756 0 0 1-.107-.934 7.489 7.489 0 0 0 .941-2.271.756.756 0 0 1 .736-.585h1.349a1.133 1.133 0 0 0 0-2.267h-1.347a.756.756 0 0 1-.736-.585 7.488 7.488 0 0 0-.941-2.273.756.756 0 0 1 .107-.934l.954-.954a1.133 1.133 0 0 0-1.6-1.6l-.954.954a.755.755 0 0 1-.934.107 7.489 7.489 0 0 0-2.271-.941.756.756 0 0 1-.585-.736V2.645a1.136 1.136 0 0 0-.906-1.111 1.164 1.164 0 0 0-.227-.023 1.134 1.134 0 0 0-1.133 1.133v1.35a.756.756 0 0 1-.585.736 7.489 7.489 0 0 0-2.274.941.755.755 0 0 1-.934-.107l-.954-.954a1.133 1.133 0 0 0-1.6 1.6l.954.954a.756.756 0 0 1 .107.934 7.489 7.489 0 0 0-.941 2.271.756.756 0 0 1-.736.585H2.645a1.133 1.133 0 0 0 0 2.267h1.349a.756.756 0 0 1 .736.585 7.488 7.488 0 0 0 .941 2.271.756.756 0 0 1-.107.934l-.954.954a1.133 1.133 0 0 0 1.6 1.6l.954-.954a.755.755 0 0 1 .536-.217z" class="prefix__cls-1" data-name="Path 969"/>
        <path id="prefix__Path_970" d="M147.89 151.78a3.89 3.89 0 1 1 0-7.78c.11 0 .22 0 .326.014a3.89 3.89 0 0 1 0 7.753c-.106.009-.216.013-.326.013zm0-6.669a2.779 2.779 0 0 0 0 5.557c.078 0 .156 0 .23-.01a2.778 2.778 0 0 0 0-5.538c-.074-.005-.151-.009-.23-.009z" class="prefix__cls-1" data-name="Path 970" transform="translate(-135.801 -135.801)"/>
    </g>
</svg>
